<svg xmlns="http://www.w3.org/2000/svg" xmlns:xlink="http://www.w3.org/1999/xlink" width="180" zoomAndPan="magnify" viewBox="0 0 135 44.999999" height="60" preserveAspectRatio="xMidYMid meet" version="1.2"><defs><clipPath id="545ea90e84"><path d="M 3.953125 9.394531 L 26.449219 9.394531 L 26.449219 35.578125 L 3.953125 35.578125 Z M 3.953125 9.394531 "/></clipPath><clipPath id="d9dfe2db79"><path d="M 15.199219 9.402344 L 26.449219 15.945312 L 26.449219 29.035156 L 15.199219 35.578125 L 3.953125 29.035156 L 3.953125 15.945312 Z M 15.199219 9.402344 "/></clipPath><clipPath id="48c3bc846c"><path d="M 3.167969 9.414062 L 21 9.414062 L 21 32 L 3.167969 32 Z M 3.167969 9.414062 "/></clipPath><clipPath id="8278bbf879"><path d="M 8.855469 13.417969 L 26.429688 13.417969 L 26.429688 35.519531 L 8.855469 35.519531 Z M 8.855469 13.417969 "/></clipPath></defs><g id="e94d8e15af"><g clip-rule="nonzero" clip-path="url(#545ea90e84)"><g clip-rule="nonzero" clip-path="url(#d9dfe2db79)"><path style=" stroke:none;fill-rule:nonzero;fill:#fcbd07;fill-opacity:1;" d="M 3.953125 35.578125 L 3.953125 9.394531 L 26.449219 9.394531 L 26.449219 35.578125 Z M 3.953125 35.578125 "/></g></g><path style=" stroke:none;fill-rule:nonzero;fill:#0b8103;fill-opacity:1;" d="M 7.757812 25.636719 L 6.449219 25.003906 C 8.398438 24.675781 7.757812 25.636719 7.757812 25.636719 "/><path style=" stroke:none;fill-rule:nonzero;fill:#0b8103;fill-opacity:1;" d="M 8.542969 21.207031 C 8.542969 21.207031 10.394531 18.074219 13.09375 21.703125 C 13.09375 21.703125 10.3125 20.363281 8.542969 21.207031 "/><path style=" stroke:none;fill-rule:nonzero;fill:#0b8103;fill-opacity:1;" d="M 8.503906 19.472656 C 8.503906 19.472656 10.917969 16.140625 13.082031 19.78125 C 13.082031 19.78125 11.109375 17.617188 8.503906 19.472656 "/><g clip-rule="nonzero" clip-path="url(#48c3bc846c)"><path style=" stroke:none;fill-rule:nonzero;fill:#0b8103;fill-opacity:1;" d="M 7.371094 30.816406 L 6.699219 29.128906 C 10.359375 29.175781 11.890625 25.671875 11.890625 25.671875 C 9.765625 27.925781 6.597656 27.273438 6.597656 27.273438 L 6.847656 25.753906 L 5.378906 24.933594 L 6.921875 20.675781 L 6.019531 19.875 L 7.210938 16.003906 C 9.597656 16.1875 11.054688 16.046875 14.515625 15.183594 C 14.328125 13.046875 14.371094 11.503906 14.371094 11.503906 C 15.960938 12.039062 18.011719 12.242188 20.144531 12.183594 L 16.214844 9.914062 C 15.34375 9.414062 14.265625 9.410156 13.390625 9.917969 L 4.585938 15 C 3.710938 15.503906 3.171875 16.4375 3.171875 17.449219 L 3.171875 27.609375 C 3.171875 28.617188 3.714844 29.554688 4.585938 30.058594 L 7.144531 31.535156 L 7.371094 30.816406 "/></g><g clip-rule="nonzero" clip-path="url(#8278bbf879)"><path style=" stroke:none;fill-rule:nonzero;fill:#0b8103;fill-opacity:1;" d="M 26.429688 17.445312 C 26.429688 16.4375 25.890625 15.5 25.015625 15 L 22.304688 13.433594 L 23.25 15.875 L 22.757812 17.058594 L 25.023438 20.253906 L 23.773438 21.375 L 24.332031 22.804688 C 24.332031 22.804688 21.128906 22.328125 19.777344 25.753906 C 19.777344 25.753906 21.820312 23.878906 24.113281 24.515625 L 23.320312 26.058594 L 24.578125 28.808594 C 22.296875 29.367188 19.011719 28.242188 16.710938 23.914062 C 15.851562 22.296875 15.304688 20.359375 14.957031 18.503906 C 14.90625 21.144531 14.570312 24.816406 13.289062 27.625 C 12.085938 30.261719 10.46875 31.800781 8.875 32.535156 L 13.386719 35.140625 C 14.261719 35.644531 15.339844 35.644531 16.214844 35.140625 L 25.015625 30.058594 C 25.894531 29.550781 26.429688 28.617188 26.429688 27.609375 L 26.429688 17.445312 "/></g><path style=" stroke:none;fill-rule:nonzero;fill:#0b8103;fill-opacity:1;" d="M 23.957031 20.359375 L 22.671875 21.382812 C 22.671875 21.382812 21.980469 20.652344 23.957031 20.359375 "/><path style=" stroke:none;fill-rule:nonzero;fill:#0b8103;fill-opacity:1;" d="M 16.761719 18.707031 C 18.851562 13.929688 20.773438 17.199219 20.773438 17.199219 C 18.75 17.054688 16.761719 18.707031 16.761719 18.707031 "/><path style=" stroke:none;fill-rule:nonzero;fill:#0b8103;fill-opacity:1;" d="M 16.304688 17.433594 C 16.957031 14.695312 19.714844 14.179688 19.714844 14.179688 L 19.898438 14.898438 C 17.230469 15.28125 16.304688 17.433594 16.304688 17.433594 "/><g style="fill:#000000;fill-opacity:1;"><g transform="translate(26.447413, 28.365601)"><path style="stroke:none" d="M 7.3125 -12.78125 C 8.269531 -12.78125 9.101562 -12.648438 9.8125 -12.390625 C 10.53125 -12.128906 11.082031 -11.753906 11.46875 -11.265625 C 11.851562 -10.785156 12.046875 -10.21875 12.046875 -9.5625 C 12.046875 -8.882812 11.847656 -8.296875 11.453125 -7.796875 C 11.066406 -7.304688 10.53125 -6.96875 9.84375 -6.78125 C 10.65625 -6.625 11.296875 -6.253906 11.765625 -5.671875 C 12.234375 -5.085938 12.46875 -4.382812 12.46875 -3.5625 C 12.46875 -2.84375 12.265625 -2.210938 11.859375 -1.671875 C 11.460938 -1.128906 10.894531 -0.710938 10.15625 -0.421875 C 9.414062 -0.140625 8.546875 0 7.546875 0 L 1.234375 0 L 1.234375 -12.78125 Z M 7.125 -7.6875 C 7.59375 -7.6875 7.957031 -7.800781 8.21875 -8.03125 C 8.488281 -8.257812 8.625 -8.570312 8.625 -8.96875 C 8.625 -9.363281 8.488281 -9.664062 8.21875 -9.875 C 7.957031 -10.082031 7.59375 -10.179688 7.125 -10.171875 L 4.578125 -10.171875 L 4.578125 -7.6875 Z M 7.125 -2.59375 C 7.707031 -2.59375 8.171875 -2.710938 8.515625 -2.953125 C 8.859375 -3.191406 9.03125 -3.53125 9.03125 -3.96875 C 9.03125 -4.375 8.859375 -4.691406 8.515625 -4.921875 C 8.171875 -5.160156 7.707031 -5.273438 7.125 -5.265625 L 4.578125 -5.265625 L 4.578125 -2.59375 Z M 7.125 -2.59375 "/></g></g><g style="fill:#000000;fill-opacity:1;"><g transform="translate(39.506084, 28.365601)"><path style="stroke:none" d="M 4.484375 -8.21875 C 4.828125 -8.789062 5.269531 -9.226562 5.8125 -9.53125 C 6.351562 -9.84375 6.96875 -10 7.65625 -10 L 7.65625 -7.015625 C 7.550781 -7.023438 7.390625 -7.03125 7.171875 -7.03125 C 6.398438 -7.03125 5.773438 -6.851562 5.296875 -6.5 C 4.828125 -6.144531 4.554688 -5.65625 4.484375 -5.03125 L 4.484375 0 L 1.234375 0 L 1.234375 -9.859375 L 4.484375 -9.859375 Z M 4.484375 -8.21875 "/></g></g><g style="fill:#000000;fill-opacity:1;"><g transform="translate(47.074941, 28.365601)"><path style="stroke:none" d="M 5.6875 -10 C 7.050781 -10 8.109375 -9.679688 8.859375 -9.046875 C 9.617188 -8.421875 10.003906 -7.546875 10.015625 -6.421875 L 10.015625 0 L 6.8125 0 L 6.8125 -1.109375 C 6.15625 -0.273438 5.164062 0.140625 3.84375 0.140625 C 2.800781 0.140625 1.976562 -0.140625 1.375 -0.703125 C 0.769531 -1.265625 0.46875 -2.007812 0.46875 -2.9375 C 0.46875 -3.875 0.789062 -4.601562 1.4375 -5.125 C 2.09375 -5.644531 3.03125 -5.910156 4.25 -5.921875 L 6.8125 -5.921875 L 6.8125 -6.03125 C 6.8125 -6.507812 6.648438 -6.875 6.328125 -7.125 C 6.015625 -7.382812 5.550781 -7.515625 4.9375 -7.515625 C 4.53125 -7.515625 4.066406 -7.445312 3.546875 -7.3125 C 3.023438 -7.175781 2.503906 -6.984375 1.984375 -6.734375 L 1.09375 -8.921875 C 1.894531 -9.285156 2.660156 -9.554688 3.390625 -9.734375 C 4.128906 -9.910156 4.894531 -10 5.6875 -10 Z M 4.84375 -2.0625 C 5.332031 -2.0625 5.757812 -2.175781 6.125 -2.40625 C 6.488281 -2.644531 6.71875 -2.957031 6.8125 -3.34375 L 6.8125 -4.1875 L 4.890625 -4.1875 C 3.972656 -4.1875 3.515625 -3.847656 3.515625 -3.171875 C 3.515625 -2.828125 3.632812 -2.554688 3.875 -2.359375 C 4.113281 -2.160156 4.4375 -2.0625 4.84375 -2.0625 Z M 4.84375 -2.0625 "/></g></g><g style="fill:#000000;fill-opacity:1;"><g transform="translate(58.036192, 28.365601)"><path style="stroke:none" d="M 7.828125 -6.75 C 6.546875 -7.414062 5.5 -7.75 4.6875 -7.75 C 4.40625 -7.75 4.175781 -7.695312 4 -7.59375 C 3.832031 -7.488281 3.75 -7.332031 3.75 -7.125 C 3.75 -6.90625 3.882812 -6.726562 4.15625 -6.59375 C 4.425781 -6.46875 4.851562 -6.320312 5.4375 -6.15625 C 6.132812 -5.957031 6.71875 -5.753906 7.1875 -5.546875 C 7.65625 -5.347656 8.0625 -5.046875 8.40625 -4.640625 C 8.75 -4.234375 8.921875 -3.703125 8.921875 -3.046875 C 8.921875 -2.046875 8.53125 -1.265625 7.75 -0.703125 C 6.976562 -0.140625 5.972656 0.140625 4.734375 0.140625 C 3.898438 0.140625 3.097656 0.0234375 2.328125 -0.203125 C 1.566406 -0.441406 0.890625 -0.796875 0.296875 -1.265625 L 1.3125 -3.359375 C 1.875 -2.960938 2.460938 -2.660156 3.078125 -2.453125 C 3.691406 -2.242188 4.269531 -2.140625 4.8125 -2.140625 C 5.125 -2.140625 5.375 -2.1875 5.5625 -2.28125 C 5.757812 -2.382812 5.859375 -2.535156 5.859375 -2.734375 C 5.859375 -2.972656 5.71875 -3.160156 5.4375 -3.296875 C 5.164062 -3.429688 4.738281 -3.578125 4.15625 -3.734375 C 3.46875 -3.941406 2.894531 -4.144531 2.4375 -4.34375 C 1.988281 -4.550781 1.597656 -4.851562 1.265625 -5.25 C 0.929688 -5.65625 0.765625 -6.175781 0.765625 -6.8125 C 0.765625 -7.8125 1.140625 -8.59375 1.890625 -9.15625 C 2.648438 -9.726562 3.625 -10.015625 4.8125 -10.015625 C 5.53125 -10.015625 6.238281 -9.914062 6.9375 -9.71875 C 7.632812 -9.519531 8.296875 -9.234375 8.921875 -8.859375 Z M 7.828125 -6.75 "/></g></g><g style="fill:#000000;fill-opacity:1;"><g transform="translate(67.465423, 28.365601)"><path style="stroke:none" d="M 1.234375 0 L 1.234375 -9.859375 L 4.46875 -9.859375 L 4.46875 0 Z M 2.859375 -14.40625 C 3.359375 -14.40625 3.769531 -14.242188 4.09375 -13.921875 C 4.414062 -13.597656 4.578125 -13.179688 4.578125 -12.671875 C 4.578125 -12.171875 4.414062 -11.753906 4.09375 -11.421875 C 3.769531 -11.097656 3.359375 -10.9375 2.859375 -10.9375 C 2.359375 -10.9375 1.945312 -11.097656 1.625 -11.421875 C 1.3125 -11.753906 1.15625 -12.171875 1.15625 -12.671875 C 1.15625 -13.179688 1.3125 -13.597656 1.625 -13.921875 C 1.945312 -14.242188 2.359375 -14.40625 2.859375 -14.40625 Z M 2.859375 -14.40625 "/></g></g><g style="fill:#000000;fill-opacity:1;"><g transform="translate(73.174025, 28.365601)"><path style="stroke:none" d="M 1.328125 0 L 1.328125 -13.53125 L 4.578125 -13.53125 L 4.578125 0 Z M 1.328125 0 "/></g></g><g style="fill:#000000;fill-opacity:1;"><g transform="translate(72.899922, 28.365601)"><path style="stroke:none" d="M 12.75 -12.765625 L 12.75 0 L 11.421875 0 L 11.421875 -5.890625 L 3.421875 -5.890625 L 3.421875 0 L 2.078125 0 L 2.078125 -12.765625 L 3.421875 -12.765625 L 3.421875 -7.078125 L 11.421875 -7.078125 L 11.421875 -12.765625 Z M 12.75 -12.765625 "/></g></g><g style="fill:#000000;fill-opacity:1;"><g transform="translate(87.72772, 28.365601)"><path style="stroke:none" d="M 1.8125 -9.59375 L 3.09375 -9.59375 L 3.09375 0 L 1.8125 0 Z M 2.46875 -11.6875 C 2.195312 -11.6875 1.96875 -11.773438 1.78125 -11.953125 C 1.601562 -12.140625 1.515625 -12.363281 1.515625 -12.625 C 1.515625 -12.863281 1.601562 -13.070312 1.78125 -13.25 C 1.96875 -13.4375 2.195312 -13.53125 2.46875 -13.53125 C 2.738281 -13.53125 2.960938 -13.441406 3.140625 -13.265625 C 3.328125 -13.085938 3.421875 -12.878906 3.421875 -12.640625 C 3.421875 -12.367188 3.328125 -12.140625 3.140625 -11.953125 C 2.960938 -11.773438 2.738281 -11.6875 2.46875 -11.6875 Z M 2.46875 -11.6875 "/></g></g><g style="fill:#000000;fill-opacity:1;"><g transform="translate(92.633847, 28.365601)"><path style="stroke:none" d="M 1.8125 -13.53125 L 3.09375 -13.53125 L 3.09375 0 L 1.8125 0 Z M 1.8125 -13.53125 "/></g></g><g style="fill:#000000;fill-opacity:1;"><g transform="translate(97.539974, 28.365601)"><path style="stroke:none" d="M 5.15625 -9.671875 C 6.40625 -9.671875 7.363281 -9.351562 8.03125 -8.71875 C 8.707031 -8.09375 9.046875 -7.164062 9.046875 -5.9375 L 9.046875 0 L 7.796875 0 L 7.796875 -1.5 C 7.503906 -1 7.078125 -0.609375 6.515625 -0.328125 C 5.953125 -0.046875 5.28125 0.09375 4.5 0.09375 C 3.4375 0.09375 2.585938 -0.160156 1.953125 -0.671875 C 1.316406 -1.179688 1 -1.859375 1 -2.703125 C 1 -3.515625 1.289062 -4.171875 1.875 -4.671875 C 2.46875 -5.171875 3.410156 -5.421875 4.703125 -5.421875 L 7.75 -5.421875 L 7.75 -6 C 7.75 -6.820312 7.515625 -7.445312 7.046875 -7.875 C 6.585938 -8.3125 5.914062 -8.53125 5.03125 -8.53125 C 4.425781 -8.53125 3.84375 -8.429688 3.28125 -8.234375 C 2.71875 -8.035156 2.238281 -7.757812 1.84375 -7.40625 L 1.265625 -8.375 C 1.742188 -8.78125 2.320312 -9.097656 3 -9.328125 C 3.6875 -9.554688 4.40625 -9.671875 5.15625 -9.671875 Z M 4.703125 -0.9375 C 5.429688 -0.9375 6.054688 -1.101562 6.578125 -1.4375 C 7.097656 -1.769531 7.488281 -2.25 7.75 -2.875 L 7.75 -4.453125 L 4.734375 -4.453125 C 3.097656 -4.453125 2.28125 -3.878906 2.28125 -2.734375 C 2.28125 -2.171875 2.492188 -1.726562 2.921875 -1.40625 C 3.347656 -1.09375 3.941406 -0.9375 4.703125 -0.9375 Z M 6.515625 -13.34375 L 8.25 -13.34375 L 5.296875 -11.078125 L 4.015625 -11.078125 Z M 6.515625 -13.34375 "/></g></g><g style="fill:#000000;fill-opacity:1;"><g transform="translate(108.300607, 28.365601)"><path style="stroke:none" d="M 3.046875 -7.71875 C 3.347656 -8.351562 3.800781 -8.835938 4.40625 -9.171875 C 5.007812 -9.503906 5.753906 -9.671875 6.640625 -9.671875 L 6.640625 -8.40625 L 6.328125 -8.421875 C 5.316406 -8.421875 4.523438 -8.109375 3.953125 -7.484375 C 3.378906 -6.867188 3.09375 -6.003906 3.09375 -4.890625 L 3.09375 0 L 1.8125 0 L 1.8125 -9.59375 L 3.046875 -9.59375 Z M 3.046875 -7.71875 "/></g></g><g style="fill:#000000;fill-opacity:1;"><g transform="translate(115.468256, 28.365601)"><path style="stroke:none" d="M 1.8125 -9.59375 L 3.09375 -9.59375 L 3.09375 0 L 1.8125 0 Z M 2.46875 -11.6875 C 2.195312 -11.6875 1.96875 -11.773438 1.78125 -11.953125 C 1.601562 -12.140625 1.515625 -12.363281 1.515625 -12.625 C 1.515625 -12.863281 1.601562 -13.070312 1.78125 -13.25 C 1.96875 -13.4375 2.195312 -13.53125 2.46875 -13.53125 C 2.738281 -13.53125 2.960938 -13.441406 3.140625 -13.265625 C 3.328125 -13.085938 3.421875 -12.878906 3.421875 -12.640625 C 3.421875 -12.367188 3.328125 -12.140625 3.140625 -11.953125 C 2.960938 -11.773438 2.738281 -11.6875 2.46875 -11.6875 Z M 2.46875 -11.6875 "/></g></g><g style="fill:#000000;fill-opacity:1;"><g transform="translate(120.374383, 28.365601)"><path style="stroke:none" d="M 5.71875 0.09375 C 4.800781 0.09375 3.96875 -0.113281 3.21875 -0.53125 C 2.476562 -0.957031 1.894531 -1.539062 1.46875 -2.28125 C 1.050781 -3.019531 0.84375 -3.859375 0.84375 -4.796875 C 0.84375 -5.734375 1.050781 -6.570312 1.46875 -7.3125 C 1.894531 -8.050781 2.476562 -8.628906 3.21875 -9.046875 C 3.96875 -9.460938 4.800781 -9.671875 5.71875 -9.671875 C 6.644531 -9.671875 7.476562 -9.460938 8.21875 -9.046875 C 8.96875 -8.628906 9.550781 -8.050781 9.96875 -7.3125 C 10.382812 -6.570312 10.59375 -5.734375 10.59375 -4.796875 C 10.59375 -3.859375 10.382812 -3.019531 9.96875 -2.28125 C 9.550781 -1.539062 8.96875 -0.957031 8.21875 -0.53125 C 7.476562 -0.113281 6.644531 0.09375 5.71875 0.09375 Z M 5.71875 -1.0625 C 6.40625 -1.0625 7.019531 -1.210938 7.5625 -1.515625 C 8.101562 -1.828125 8.523438 -2.269531 8.828125 -2.84375 C 9.128906 -3.414062 9.28125 -4.066406 9.28125 -4.796875 C 9.28125 -5.523438 9.128906 -6.175781 8.828125 -6.75 C 8.523438 -7.320312 8.101562 -7.757812 7.5625 -8.0625 C 7.019531 -8.375 6.40625 -8.53125 5.71875 -8.53125 C 5.039062 -8.53125 4.429688 -8.375 3.890625 -8.0625 C 3.347656 -7.757812 2.921875 -7.320312 2.609375 -6.75 C 2.304688 -6.175781 2.15625 -5.523438 2.15625 -4.796875 C 2.15625 -4.066406 2.304688 -3.414062 2.609375 -2.84375 C 2.921875 -2.269531 3.347656 -1.828125 3.890625 -1.515625 C 4.429688 -1.210938 5.039062 -1.0625 5.71875 -1.0625 Z M 5.71875 -1.0625 "/></g></g></g></svg>